<svg id="Layer_2" data-name="Layer 2" xmlns="http://www.w3.org/2000/svg" xmlns:xlink="http://www.w3.org/1999/xlink" viewBox="0 0 1919.85 1080.66"><defs><style>.cls-1{fill:url(#linear-gradient);}.cls-2{fill:url(#linear-gradient-2);}.cls-3{fill:url(#linear-gradient-3);}.cls-4{fill:#0a2540;}.cls-5{fill:url(#linear-gradient-4);}.cls-6{fill:#343a38;}</style><linearGradient id="linear-gradient" y1="497.3" x2="360.85" y2="497.3" gradientUnits="userSpaceOnUse"><stop offset="0" stop-color="#fff"/><stop offset="1" stop-color="#1fc7ff"/></linearGradient><linearGradient id="linear-gradient-2" y1="954.41" x2="1595.87" y2="954.41" gradientUnits="userSpaceOnUse"><stop offset="0" stop-color="#1fc7ff"/><stop offset="0.63" stop-color="#fff"/></linearGradient><linearGradient id="linear-gradient-3" x1="1595.85" y1="504.19" x2="1919.85" y2="504.19" xlink:href="#linear-gradient-2"/><linearGradient id="linear-gradient-4" x1="360.84" y1="90.09" x2="1919.35" y2="90.09" xlink:href="#linear-gradient"/></defs><polygon class="cls-1" points="0 834.5 0 255.85 360.84 160.1 360.85 160.16 0 834.5"/><polygon class="cls-2" points="0 834.5 1595.85 828.16 1595.87 828.22 961.11 1080.66 0 1080.66 0 834.5"/><polygon class="cls-3" points="1919.85 180.16 1919.35 699.57 1595.87 828.22 1595.85 828.16 1919.74 180.38 1919.85 180.16"/><polygon class="cls-4" points="1919.35 699.57 1919.35 1080.66 961.11 1080.66 1595.87 828.22 1919.35 699.57"/><polygon class="cls-5" points="1919.35 0 1919.35 180.18 360.85 160.16 360.84 160.1 959.85 1.16 959.85 0 1919.35 0"/><polygon class="cls-6" points="959.85 0 959.85 1.16 360.84 160.1 0 255.85 0 0 959.85 0"/></svg>