<!-- Generator: Adobe Illustrator 24.3.0, SVG Export Plug-In  -->
<svg version="1.1" xmlns="http://www.w3.org/2000/svg" xmlns:xlink="http://www.w3.org/1999/xlink" x="0px" y="0px" width="1921px"
	 height="1083.94px" viewBox="0 0 1921 1083.94" style="overflow:visible;enable-background:new 0 0 1921 1083.94;"
	 xml:space="preserve">
<style type="text/css">
	.st0{fill:url(#SVGID_1_);stroke:#FFFFFF;stroke-miterlimit:10;}
	.st1{fill:url(#SVGID_2_);stroke:#FFFFFF;stroke-miterlimit:10;}
</style>
<defs>
</defs>
<linearGradient id="SVGID_1_" gradientUnits="userSpaceOnUse" x1="967.3746" y1="1053.5447" x2="958.3326" y2="-179.9698">
	<stop  offset="0" style="stop-color:#FFFFFF"/>
	<stop  offset="0.8068" style="stop-color:#FFA80D"/>
	<stop  offset="1" style="stop-color:#FFA80D"/>
</linearGradient>
<path class="st0" d="M0.5,3.35v228.06l402.79,315.12c16.68,13.64,39.67,12.21,54.89-3.43l0,0c19.41-19.96,18.45-54.5-2.04-73.07
	L294,321.02c0,0-77.5-69.79-24-129.52s134,10.05,134,10.05L856.37,540.9c33.02,20.74,75.02,8.85,94.7-27.29
	c0.3-0.55,0.61-1.11,0.92-1.66c31.5-55.55,83-21.49,83-21.49L1920.5,1083V625.42l-634.9-382.66c-20.41-12.3-24.7-42.94-8.62-61.6
	l0,0c10.7-12.43,27.43-15.58,41.2-7.75l602.33,342.52V0"/>
</svg>
