<!-- Generator: Adobe Illustrator 24.3.0, SVG Export Plug-In  -->
<svg version="1.1" xmlns="http://www.w3.org/2000/svg" xmlns:xlink="http://www.w3.org/1999/xlink" x="0px" y="0px" width="500.5px"
	 height="393.5px" viewBox="0 0 500.5 393.5" style="overflow:visible;enable-background:new 0 0 500.5 393.5;"
	 xml:space="preserve">
<style type="text/css">
	.st0{fill:#EF314A;}
	.st1{fill:#A8A8A8;}
	.st2{fill:#FEFEFE;}
	.st3{fill:#3D4049;}
	.st4{fill:#010200;}
</style>
<defs>
</defs>
<g>
	<g id="XMLID_2_">
		<g>
			<path class="st0" d="M478.15,97.63c2.52,8.38,0.37,15.34-1.94,22.92c-2.5,8.18-6.93,15.76-8,24.35
				c-0.93,7.5-4.62,12.12-11.19,16.32c-11.92,7.62-24.56,13.87-36.61,21.19c-6.61-4.22-10.27-11.15-15.25-16.85
				c-7.79-8.9-15.22-18.13-22.59-27.39c-2.56-3.22-5.59-6.17-3.16-11.49c1.8-3.92-7.18-15.39-11.81-16.41
				c-0.33-0.07-0.81-0.28-0.95-0.15c-5.44,5.12-7.47-1.08-10.72-3.2c-2.86-3.68-5.78-7.3-8.54-11.05
				c-7.87-10.69-17.9-19.64-24.97-31.01c-0.31-0.49-0.55-0.92-0.71-1.31c-0.55-1.28-0.28-2.15,1.31-3.48
				c17.66-14.81,34.69-30.32,51.49-46.08c5.54-5.2,9.05-5.12,13.02,0.34c-0.22,0.58-0.22,1.19,0.4,1.45
				c0.25,0.11,0.69-0.24,1.05-0.38c1.47,0.04,2.95,0.08,4.42,0.12c5.63,0.56,10.61,4.93,16.69,2.82c6.32,2.69,11.39,6.6,14.93,12.76
				c4.44,7.71,4.97,16.03,4.88,24.48c-0.07,6.45,8.66,16.53,15.07,16.61C458.95,72.35,473.96,83.67,478.15,97.63z M415.86,37.45
				c0.78-0.08,1.71,0.05,1.49-1.45c-1.13-1.58-2.51-3.2-4.68-3.67c-1.24-0.27-1.02,0.76-0.92,1.6
				C412.06,36.37,413.27,37.7,415.86,37.45z M395.68,47.25c1.5,0.38,2.11-0.52,2.03-2.45c-0.46-1.03-0.58-3.19-2.59-3.17
				c-1.64,0.01-2.15,2.05-2.43,3.39C392.18,47.4,394.42,46.94,395.68,47.25z"/>
			<path class="st1" d="M417.35,36c0.22,1.5-0.71,1.37-1.49,1.45c-2.59,0.25-3.8-1.08-4.11-3.52c-0.1-0.84-0.32-1.87,0.92-1.6
				C414.84,32.8,416.22,34.42,417.35,36z"/>
			<path class="st1" d="M124.25,53.28c0,0.01,0.02,0.03,0.03,0.04h0.01c0.09,0.08,0.16,0.14,0.25,0.2
				c-0.07-0.08-0.15-0.16-0.22-0.24C124.3,53.28,124.27,53.28,124.25,53.28z M124.24,53.28c-1.95-2.04-3.07-4.52-3.8-7.23
				c-0.31-1.16-0.95-3.53-2.16-2.41c-3.33,3.09-9.91,1.52-10.96,7.65c-0.01,0-0.01,0.01-0.02,0.01l-0.1,0.13l0.11-0.11
				c0-0.01,0-0.02,0.01-0.03c2.23-1.29,4.51-3.63,6.71-3.57c2.52,0.07,3.08,3.83,4.86,5.69c0.57,0.59,1.11,1.34,1.83,1.62
				c1.69,0.69,1.19-0.93,1.52-1.66l0.08-0.07C122.95,53.29,123.6,53.29,124.24,53.28z M420.41,182.41c-1.42,2.1-3.37,3.05-5.94,2.87
				c-8.78-0.63-15.74,4.25-22.13,8.85c-7.84,5.62-15.93,10.64-24.34,15.26c-1.31,0.71-2.87,1.04-4.05,1.91
				c-5.34,3.94-10.88,4.01-16.28,0.53c-6.39-4.12-12.55-5.07-18.82,0.04c-0.12,0.1-0.28,0.21-0.44,0.22
				c-7.63,0.96-12.37,6.29-17.21,11.43c-1.2,1.28-2.6,2-4.23,2.49c-5.99,1.8-9.78,6.57-9.58,12.06c0.33,9.4-3.53,17.52-5.91,26.04
				c-1.75,6.28-3.49,12.62-3.83,18.97c-0.63,12.01-5.06,23.27-5.97,35.17c-0.3,3.81-1.1,7.44,1.64,10.93
				c1.87,2.37,0.79,4.9-1.88,6.07c-8.58,3.76-12.4,11.07-15.08,19.37c-0.44,1.4-1,3.17-2.09,3.9c-5.97,4-9.51,9.95-13.32,15.72
				c-0.63,0.97-1.74,1.74-2.08,2.78c-2.08,6.36-6.21,11.33-10.62,16.13c-3.33,0-6.66,0-9.99,0c-2.1-5.78-5.02-7.67-11.37-6.89
				c-7.35,0.9-13.54,0.43-19.92-5.19c-5.22-4.61-12.53-7.45-20.39-8.17c-5.42-0.49-9.46-5.27-11.93-10.05
				c-1.38-2.69-2.74-3.56-5.41-4c-4.1-0.67-9.81,3-11.8-3.8c-1.26-4.29-4.35-8.16-3.16-13.04c0.8,0.2,1.62,0.34,2.41,0.6
				c5.89,1.95,12.2,3.58,18.06,2.27c5.55-1.24,10.34-5.51,16.46-5.85c0.48-0.03,0.93-0.85,1.38-1.32
				c6.26-6.61,12.58-13.16,18.74-19.87c2.62-2.85,5.43-5.53,7-9.3c5.81-14.02,1.99-27.2-3.27-40.24
				c-3.84-9.52-10.77-17.01-16.89-25.02c1.79-0.3,3.28-1.51,5.13,0.89c1.93,2.49,5.3,4.74,7.88,5.55
				c5.33,1.68,10.24,4.64,15.83,5.53c2.28,0.36,3.06,1.8,3.43,4.15c1.09,6.98,2.6,13.89,3.94,20.83c0.66-1.2,0.74-2.32,0.64-3.42
				c-0.08-0.99-0.33-1.96-0.53-2.93c-2.61-12.65-4.02-25.33,0.14-37.92c1.94-5.87,2.02-11.62,0.94-17.68
				c-0.63-3.52-1.53-5.63-5.37-6.48c-2.95-0.65-4.55-3.31-4.41-6.51c0.16-3.3,2.63-5.17,5.26-6.03c2.73-0.9,5.16,0.65,6.76,3.1
				c0.7,1.07,1.29,2.21,2.04,3.49c0.84-1.54,1.23-2.98,2.43-4.01c1.52-1.32,3.49-3.3,1.45-4.95c-2.08-1.69-3.84-5.62-7.72-3.18
				c-2.77,1.74-3.27,0.42-3.64-2.14c-1.13-7.87-2.75-15.68-3.64-23.58c-0.43-3.77-2.52-8.18,2.06-11.31
				c0.64-0.44,0.72-2.23,0.52-3.28c-0.67-3.4,0.3-6.35,1.85-9.28c0.41-0.78-0.2-2.2,1.19-2.36c1.23-0.14,1.75,0.91,1.84,1.92
				c0.27,3.09,2.89,3.2,4.34,2.32c1.86-1.12,6.02,1.96,5.74-3.01c-0.06-1.05,0.46-2.06,1.55-2.29c1.3-0.28,1.61,1,2,1.82
				c1.5,3.18,2.89,6.4,4.32,9.61c0.44-2.89-0.16-5.49-0.76-8.09c-0.66-2.8-2.35-5.56,2.05-7.4c1.45-0.61,3.18-3.81,2.12-6.07
				c-1.04-2.19-3.43-1.15-5.39-0.81c-1.92,0.33-3.89,0.35-5.84,0.5c4.95-0.86,7.9-5.02,10.44-7.88c2.19-2.48,3.52-5.36,7.03-6.46
				c1.25-0.39,3.4-0.8,2.8-2.78c-0.46-1.56-2.33-0.59-3.55-0.86c-4.24-0.94-8.45,1.67-12.7,0.09c-6.48-2.4-17.35,0.9-21.63,6.46
				c-1.12,1.45-2.66,2.32-4.42,3.04c-4.28,1.74-7.88-1.83-11.97-1.28c-0.48,0.07-0.91-1.51-0.56-1.58c4.62-0.81,3.33-5.9,6.25-8.27
				c-3.69-0.95-7.49-8.2-10.31,0.83c-0.12,0.4-1.31,0.36-1.7,0.8c-5.45,6.11-13.48,2.82-20.02,5.35c-2.99,1.15-7.11-0.72-10.73-1.1
				c-9.05-0.95-18.19-3.13-27.15-0.12c-2.84,0.95-5.68,1.39-8.54,1.71l-0.22-2c0.93-0.11,1.76-0.58,2.4-1.45
				c1.03-1.43-0.73-2.4-1.46-3.32c-1.86-2.32-3.12,0.18-4.6,0.82c-1.27,0.55-2.22,2.11-3.73,2.11c-0.42,0-0.88-0.12-1.4-0.42
				c3.72-5.4,16.64-10.66,22.09-9.21c-4.72-5.79-6.73-13.24-12.08-18.65c-0.71-0.72-1.44-0.73-2.16-0.06
				c-3.01,2.81-7.87,1.5-10.69,4.9c-0.86,1.05-2.41,0.41-2.98-0.66c-1.58-2.91-5.08-3.68-6.8-6.49c-1.21-1.99-3.59-1.9-5.38-0.91
				c-2.08,1.16-0.52,3.04-0.05,4.44c0.46,1.38,1.29,2.81,2.35,3.77c4.92,4.48,6.22,11.12,9.95,16.29c0.35,0.49,1.18,1.11,0.47,1.66
				c-5.84,4.58-0.8,8.05,1.83,10.52c2.01,1.9,5.05,4.2,8.6,3.54c1.43-0.27,2.79-2.91,4.17-0.72c1.02,1.62,0.73,3.86-0.79,5.56
				c-3.23,3.62-1.74,7.88-1.37,11.89c0.21,2.19,2.15,2.81,4.2,2.38c3.27-0.69,6.44-1.56,8.57-4.5c0.67-0.93,1.79-1.82,2.99-0.96
				c1.06,0.76-0.01,1.8-0.14,2.72c-0.24,1.74-2.13,3.76-0.5,5.14c3.01,2.54,6.33,4.72,9.44,7.16c0.94,0.74,3.65-0.91,5.59-1.25
				c3.85-0.69,7.56-0.11,11.26,1.18c12.52,4.34,18.07,15.16,23.9,25.68c0.84,1.51,1.04,2.58,3.34,2.34
				c1.54-0.16,4.93,0.17,4.43,2.75c-1.11,5.77,2.37,10.16,3.75,15.13c1.36,4.89,0.74,8-3.7,10.53c-2.6,1.47-4.17,3.5-5.37,6.46
				c2.46,0.4,4.62,0.82,6.25,2.33c0.11,0.1,0.21,0.2,0.31,0.31c-0.15-0.04-1.46-0.41-4.28,0.53c-3,1-3.89,2.92-3.89,2.92
				c-1.23,2.04-2.54,4.21-3.85,6.38c-3.55,3.24-7.67,5.12-12.52,5.25c-0.22-0.18-0.44-0.36-0.67-0.52
				c-6.79-5.37-14.5-8.29-23.7-8.26c-0.07,0.01-0.14,0.03-0.22,0.04c-2.56,0.42-4.99,1.04-7.1,1.69c-0.19,0-0.37,0-0.55,0
				c2.5-1.07,2.72-1.75,1.87-2.24c0.03-0.06,0.06-0.12,0.1-0.18c1.75-0.49,3.67-0.94,5.68-1.27c0.08-0.01,0.15-0.03,0.22-0.04
				c3.21-1.91,6.17-1.45,5.06-5.58c0.36-0.12,0.26-1.06,0.61-1.3c5.47-3.76,11.13-7.6,17.81-8.21c7.06-0.64,10.37-2.59,12.99-9.16
				c3.28-8.21,1.46-15.85-3.05-22.6c-2.67-4-3.33-9.31-8.29-12.1c-2.64-1.49-9-7.32-24-3.32l-34.51,21.69
				c-4.52,2.6-5.77,6.62-3.96,11.63c0.44,1.21,0.49,2.6,0.48,3.91c-0.09,8.97,3.78,15.98,10.58,21.54c0.99,0.81,2.74,1.17,1.96,2.91
				c-1.17,2.62,0.75,1.18,2.37,1.97c1.68,0.82,3.39,1.6,5.44,2.54c1.01,0.47,2.17,0.47,3.19,0.03c1.52-0.66,4.05-1.67,7.14-2.56
				c0.07,0.04,0.13,0.07,0.18,0.1c-0.47,0.87-0.83,1.62-1.87,2.24c-1.17,0.28-2.89,1.01-4.77,1.93c-1.3,0.54-2.1,0.94-2.23,1
				l-0.02,0.01c-3.65,0.87-5.6,3.21-8.06,4.8c-5.86,3.8-11.73,7.59-17.38,11.68c-2.79,2.03-5.87,3.64-6.68,8.05
				c-0.37,2.03-4.21,3.61-5.62,6.55c-4.2,8.7-3.21,17.84-3.05,26.94c-3.22-8.68-10.07-15.12-14.36-23.14
				c-2.32-4.34-4.88-8.34-2.03-13.94c1.4-2.76,0.87-7-1.14-10.35c-1.72-2.85-2.4-5.8-1.74-9.39c0.62-3.38,0.51-6.29,5.14-6.1
				c1.98,0.09,2.11-1.74,2.08-3.31c-0.06-3.07-0.27-5.16,4.28-3.12c5.17,2.32,10.75,4.04,16.6,4.52c4.43,0.37,6.97,4.73,11.28,5.84
				c2.13,0.55,4.01,1.21,6.34,0.57c-0.15-3.17-4.2-3.8-4.41-6.71c0.91-1.64,2.56,0.82,3.47-0.8c-2.32-3.44-4.63-6.86-6.94-10.29
				c-0.54-0.79-1.08-2.2-2.17-1.46c-5.11,3.45-10.35-1.24-16.15,1.22c1.34-2.66,2.31-4.35,3.07-6.13c2.2-5.21-0.73-9.52-6.32-9.31
				c-4.44,0.16-8.71,1.48-12.26-3.41c-2.61-3.6-5.75-6.42-6.63-11.23c-1.56-8.47-6.84-14.37-14.31-18.69
				c-11.69-6.75-22.29-15.1-32.7-23.64c-3.01-2.47-5.12-6.03-7.64-9.09c0.63-0.18,1.26-0.36,1.88-0.54c1.65,0.32,3.42,2.5,4.85,0.71
				c1.18-1.48-1.1-2.75-1.71-4.18c4.2-7.74,8.21-15.59,12.65-23.2C50,81.42,61.46,61.81,75.39,43.8c5.28,4.84,9.08,10.9,12.17,17.13
				c1.88,3.8,2.83,3.53,5.33,0.62c0.67,4,0.56,7.81,4.34,9.68c0.02,0.03,0.03,0.07,0.05,0.1c0.33,0.34,0.67,0.67,1.01,1.01
				c0.02,0,0.04,0,0.06,0c0.24,2.57,2.08,3.59,4.52,4.74c-0.04-3.56-1.85-4.58-4.52-4.74c-0.01-0.02-0.01-0.03-0.01-0.05
				c-0.34-0.34-0.68-0.68-1.01-1.01c-0.03-0.02-0.07-0.03-0.1-0.05c-2.84-5.77-1.94-12.36-3.97-18.26c-0.89-2.6-0.13-3.72,2.11-4.33
				c4.13-1.13,6.57-5.32,11.3-5.86c0.58-0.05,1.18-0.07,1.83-0.01c5.11,0.44,10.41-1.99,15.68-2.31c6.67-0.39,13.14-1.97,19.77-2.54
				c6.34-0.54,10.18,3.07,13.45,7.5c2.75,3.74,4.93,7.89,8.35,11.15c0.82,0.78,2.09,1.93,1.98,2.74
				c-1.36,9.49,7.79,12.8,11.41,19.33c1.75,3.15,3.98,5.95,5.04,9.54c1.33,4.52,3.2,5.11,7.34,2.88c3.74-2.02,9.65-0.05,12.09,3.62
				c1.08,1.62,3.15,2.63,5.19,2.54c1.25-0.06,3.1-0.09,2.98-2.44c-0.09-1.79,1.67-1.87,2.87-2.16c4.64-1.14,9.35-2.26,14.15-1.2
				c10.55,2.34,21.46,1.75,32.02,4.16c4.5,1.03,12.16,6.36,11.78,10.13c-0.25,2.52,0.37,5.17-0.16,7.15
				c-0.83,3.09,0.93,3.86,2.38,5.1c3.76,3.2,4.41,4.26,5.11,10.47c-2.56-3.77-4.25-2.45-6.31-0.23c-1.54,1.67-2.2,3.66-3.32,5.47
				c-0.62,0.98-1.62,2-0.46,3.06c1.23,1.11,1.98-0.59,2.93-0.77c3.18-0.6,5.75-2.41,8.54-3.8c1.46-0.72,2.98-1.35,5.08,0.1
				c-1.91,1.46-3.55,2.71-5.69,4.34c5.75,0.81,4.88,3.1,2.17,6.53c-2.51,3.17-0.18,8.11,3.86,9.21c5.18,1.4,11.46-0.53,14.08-4.49
				c-1.3-0.8-3.63,1.41-4.23-1.43c-0.53-2.46,1.04-3.19,2.69-4.1c2.28-1.26,4.83-2.15,6.51-4.05c-0.23-1.25-1.02-0.99-1.6-1.14
				c-6.66-1.73-7.52-4.4-3.05-9.58c0.4-0.47,1.5-0.81,1.46-1.1c-1.22-9.37,8.84-11.68,10.5-19.01c-4-1.75-5.88-3.84-6.18-7.24
				l2.28-0.23c0.09,0.81,0.49,1.6,1.07,2.29c2.14,2.58,5.87,1.91,7.94-1.17c0.46-0.68,0.5-1.55,0.7-2.37
				c0.21-0.81,0.57-1.57,1.66-2.04c1.56,0.24,0.12,2.53,1.79,2.89c1.05-0.42,1.53-1.54,1.74-2.61c0.98-4.91-2-7.25-6.12-8.95
				c3.52-1.02,5.97,0.1,7.6,3.22c0.63,1.2,1.47,2.59,3.03,1.63c1.42-0.87,0.84-2.42,0.26-3.61c-0.49-1.01-1.22-2.58-2-2.68
				c-4.51-0.58-5.71-4.19-7.35-7.43c-2.04-4.04-3.47-2.22-4.98,0.42c-1.91,3.34-3.11,7.26-7.63,9.79c0.92-5.03,2.69-9.37-0.48-13.54
				c-1.05-1.39,0.64-2.1,2.08-2.47c3.04-0.78,4.28-1.38,2.5-5.53c-2.99-6.99-10.45-9.81-13.34-16.5c-0.19-0.45-0.74-0.77-0.85-1.22
				c-0.58-2.25-4.3-4.51-0.69-6.79c3.14-1.99,3.98,1.68,5.63,3.17c3.83,3.45,7.7,6.85,11.41,10.41c2.34,2.24,4.42,4.48,5.95,7.31
				c0.69,1.29,1.27,2.7,1.71,4.29c1.46,5.28,6.74,8.86,10.36,13.17c6.41,7.63,12.84,15.24,19.19,22.93
				c1.51,1.83,3.12,2.94,5.56,2.34c3.25,2.12,5.28,8.32,10.72,3.2c0.14-0.13,0.62,0.08,0.95,0.15c4.63,1.02,13.61,12.49,11.81,16.41
				c-2.43,5.32,0.6,8.27,3.16,11.49c7.37,9.26,14.8,18.49,22.59,27.39C410.14,171.26,413.8,178.19,420.41,182.41z M404.86,174.68
				c-0.11-6.9-5.21-7.42-9.01-9.27c-0.64-0.31-1.73-0.24-2.18,0.62c-0.46,0.9,0.25,1.77,0.81,2.15
				C397.7,170.31,401.02,172.3,404.86,174.68z M394.83,179.28c-0.14-1.12,0.61-2.84-1.57-2.79c-3.61,0.08-3.75,3.63-5.19,5.71
				c-0.53,0.76,0.96,1.94,2.64,1.98C394.31,184.27,394.32,181.67,394.83,179.28z M374.29,146.82c1.2-2.53,0.11-4.45-0.88-6.27
				c-1.58-2.91-4.51-2.17-7.06-2.3c-0.97-0.04-2.56,0.25-2.11,1.34c0.89,2.13-0.49,5.01,2.18,6.49c0.93,0.52,1.25,2.3,2.68,1.67
				c1.45-0.65,1.25-2.13,1.11-3.47v-0.01C372.47,143.37,372.78,146.06,374.29,146.82z M360.68,151.17c1.77,3.07,4.37,1.8,6.97,1.08
				c-2.08-1.66-3.39-5-6.8-3.67C359.76,149.01,360.16,150.28,360.68,151.17z M352.88,166.1c1.26-0.35,1.69-1.46,2.22-2.86
				c-1.08-2.05-3.53-3.71-3.1-6.74c0.24-1.68-0.28-3.38-2.1-4.08c-1.58-0.61-3.08,0.22-4.02,1.29c-1.37,1.54-0.93,3.39,0.14,5.04
				c1.42,2.2,3.47,3.96,4.33,6.56C350.74,166.5,351.9,166.38,352.88,166.1z M349.96,146.74c1.98-1.49,0.38-3.02-0.1-4.43
				c-0.43-1.26-1.93-1.28-2.24-0.31c-0.85,2.6-3.88,2.96-5.13,5.56C345.28,148.74,347.68,148.46,349.96,146.74z M347.34,171.97
				c-0.24-1.57-0.95-2.04-2.4-1.32c-1.28,0.64-1.99,1.74-2.56,2.95c-1.07,2.26-2.15,4.49-3.67,6.15c-0.85,0.94-1.85,1.69-3.07,2.17
				c-1.29,0.52-2.82,0.73-4.7,0.51c-1.03-0.12-2.99,0.64-2.59,2.35c0.53,2.3,2.31,1.34,3.59,0.7c1.37-0.67,2.63-1.02,3.81-1.04
				c1.1-0.01,2.13,0.26,3.09,0.82c0.95,0.55,1.83,1.39,2.67,2.5c0.67,0.89,1.75,3.27,3.31,1.48c1.22-1.4,0.27-3.36-1.52-4.03
				c-0.74-0.28-1.31-0.58-1.74-0.88c-1.45-1.04-1.17-2.2-0.13-3.56c0.32-0.42,0.72-0.86,1.15-1.32
				C344.61,177.29,346.39,174.86,347.34,171.97z M341.7,136.94c1.33-0.8,3.32-1.83,1.71-3.75c-1.25-1.5-1.34-4.95-3.84-4.25
				c-2.41,0.68-4.24,3.12-4.89,5.83c-0.58,2.39-0.37,4.63,2.47,5.61c0.17,0.13,0.35,0.25,0.52,0.38c-0.12-0.18-0.24-0.36-0.37-0.53
				C337.65,137.61,340.11,137.9,341.7,136.94z M335.33,171.15c3.67-1.18,4.9-3.31,2.53-6.66c-5.72-8.1-10.3-16.84-14.65-25.71
				c-0.52-1.06-1.17-1.56-2.29-1.41c-1.3,0.17-1.43,1.18-1.45,2.21c-0.04,2.15-0.92,4.17-2.6,5.16c-4.91,2.88-6.39,7.68-7.89,12.6
				c-0.38,1.23-1.1,2.43-1.91,3.45c-0.91,1.14-2.46,1.94-1.02,3.69c2.26,2.76,3.56,6.43,7.31,7.77c0.73,0.27,0.73-0.42,0.8-0.85
				c0.54-3.22,2.44-1.68,3.47-0.71c2.71,2.53,5.96,2.53,10.01,2.61C330.21,174.55,332.56,172.03,335.33,171.15z M334.97,197
				c0.13-1.08,0.08-2.45-1.92-2.49c-1.27,1.36-3.82,2.13-3.93,4.31c-0.08,1.63,2.23,2.06,3.59,1.98
				C334.88,200.68,334.79,198.54,334.97,197z M325.32,132.78c1.95,1.54,3.77,0.23,3.99-2.88c-1.14-4.02-3.84-7.57-6.42-11.16
				c-1.81-2.53-3.71-2.73-6.11-0.37c-2.33,2.3-5.14,4.12-7.66,6.25c-1.12,0.96-4.26,0.98-2.16,3.71c1.38,1.8,2,3.99,5.67,3.52
				C316.66,131.32,321.15,129.49,325.32,132.78z M306.34,214.96c0.68-0.25,0.75-1.06,0.45-1.69c-1.49-3.01-3.56-5.76-6.71-6.84
				c-2.9-0.99-5.73-0.02-8.04,3.79c5.21,0.14,9.76,0.1,12.52,4.52C304.77,215.08,305.82,215.15,306.34,214.96z M291.56,215.6
				c2.9,1.72,5.87,1.99,7.94,3.99C298.15,216.41,295.95,214.64,291.56,215.6z M296.03,179.91c-1.03-4.27-3.33-6.84-6.95-8.25
				C289.95,175.48,290.74,179.38,296.03,179.91z M275.87,147.83c0.32-2.68,0.65-5.35,1.13-9.39c-3.58,3.6-3.2,6.42-2.43,9.3
				C275.01,147.77,275.44,147.8,275.87,147.83z M256.27,233.75c0.2-1.02-0.14-2.03-1.32-2.3c-0.91-0.21-1.91,0.36-1.93,1.12
				c-0.14,4.94-2.82,9.81,0.42,14.97C254.39,242.95,255.38,238.36,256.27,233.75z M253.91,191.89c-0.15-3.56,1.12-7.57-2.99-10.09
				C248.98,186.24,253.53,188.41,253.91,191.89z M240.91,165.55c2.72-3.06,2.44-6.01,2.42-8.88c-0.01-0.78,0.08-1.8-0.97-1.98
				c-1.24-0.22-1.92,0.77-1.96,1.71C240.27,159.16,239.91,161.95,240.91,165.55z M235.29,285.67c0.06-3.69-3.13-4.63-5.48-5.67
				c-1.32-0.59-3.16,1.89-2.92,3.22c0.57,3.09,3.8,3.71,5.76,5.03C234.84,288.29,235.26,287.2,235.29,285.67z M222.86,294.66
				c0.23-0.25,0.47-0.49,0.7-0.73c-0.59-1.38-1.21-2.72-3.04-3.26C220.14,293.01,221.43,293.88,222.86,294.66z M187.14,104.06
				c0.2-4.94-6.27-9.57-11.73-7.83c3.48,2.14,5.92,4.38,7.32,7.67c0.51,1.18,1.43,2.36,3.04,1.99
				C186.6,105.69,187.1,105.02,187.14,104.06z M174.79,100.59c-0.7-1.64-1.16-3.03-1.84-4.3c-2.13-3.96-4.19-8.14-9.75-7.69
				c-6.68,0.54-11.92,4.32-12.72,9.65c-0.45,3.05-1.38,5.18-4.2,6.72c-2.06,1.12-2.61,2.59,0.08,4.38c4.05,2.7,7.49,1.47,11.02-0.68
				C162.76,105.39,168.26,102.4,174.79,100.59z M168.73,77.36c1.02-2.03-0.66-3.1-1.82-3.4c-2.47-0.64-4.16-4.38-7.11-2.4
				c-2.68,1.8-3.96,4.87-4.49,8.03c-0.35,2.1,0.84,3.58,2.85,2.1c2.28-1.67,3.71-5.38,6.81-1.67C166.93,79.7,168,78.8,168.73,77.36z
				 M146.04,62.8c10.84-2.98,13.04-0.08,5.25-12.17c-0.23-0.37-0.67-0.6-1.94-1.68c0.25,1.79,0.21,2.45,0.44,3
				c0.48,1.13,2,2.07,0.7,3.49c-1.31,1.43-2.74,0.69-4.06-0.05c-2.24-1.25-4.82-1.35-6.94-3.41c-2.44-2.38-6.48-0.33-7.06,3.24
				c-0.37,2.37-1.95,3.74-3.34,5.36c-1.72,2.03-4.2,3.48-5.33,6.33c0.91,0.05,1.43,0.19,1.9,0.1
				C132.46,65.65,139.37,64.64,146.04,62.8z M127.75,82.8c0.11-1.23-0.85-3.97-2.44-3.76c-2.15,0.29-3.86,1.93-4.09,4.72
				c-0.17,2.12,1.12,1,2.22,1.45C124.48,83.9,127.5,85.42,127.75,82.8z M104.34,144.33c0.24,1.24,0.57,2.41,2.52,2.28
				C106.51,145.12,105.75,144.38,104.34,144.33c0-0.02-0.01-0.05-0.01-0.07c-0.02-0.01-0.05-0.02-0.07-0.04
				c0.06-0.8-0.23-1.46-0.92-1.9c0-0.03,0-0.06,0-0.09c-0.04-0.02-0.09-0.05-0.13-0.07c-0.3-0.45-0.61-0.9-0.92-1.35
				c-0.16,0.19-0.32,0.38-0.48,0.58c0.47,0.26,0.93,0.51,1.4,0.77c0.03,0.04,0.05,0.08,0.08,0.12c0.02,0.01,0.04,0.02,0.05,0.04
				c0.01,0.78,0.17,1.48,0.92,1.9c0.01,0.03,0,0.07,0,0.1C104.29,144.32,104.32,144.32,104.34,144.33z M105.44,70.76
				c0.1-0.1,0.21-0.21,0.32-0.32c-0.14-0.05-0.29-0.1-0.43-0.15c-0.05-1.29-0.71-1.96-2.01-2c-0.14-0.13-0.29-0.26-0.43-0.39
				c-0.18-0.21-0.37-0.41-0.56-0.61c-0.01,0-0.03,0-0.04,0c0.65-3.56-2.1-6.89-0.48-10.66c0.76-1.76-1.63-2.33-2.88-2.7
				c-1.94-0.56-1.28,1.28-1.52,2.23c-0.32,1.27-0.76,2.53-0.92,3.82c-0.49,3.91,2.51,7.63,5.8,7.31c0,0.02-0.01,0.03-0.01,0.05
				c0.21,0.18,0.41,0.37,0.61,0.56c0.14,0.14,0.27,0.29,0.4,0.43c-0.06,1.38,0.61,2.05,1.99,2.01
				C105.33,70.48,105.39,70.62,105.44,70.76z M98.4,187.24c0.12-4.49-8.53-16.39-13.63-18.34C89.53,174.68,94.07,180.61,98.4,187.24
				z M93.41,142.15c-0.79-0.78-0.59-2.64-2.31-2.63c-1.82,0.01-3.06,1.37-3.3,3.03c-0.12,0.87,0.3,2.44,1.79,2.51
				C91.42,145.14,92.64,144.15,93.41,142.15z"/>
			<path class="st1" d="M410.09,18.34c-6.08,2.11-11.06-2.26-16.69-2.82C399.15,15.39,405.17,13.62,410.09,18.34z"/>
			<path class="st2" d="M395.85,165.41c3.8,1.85,8.9,2.37,9.01,9.27c-3.84-2.38-7.16-4.37-10.38-6.5c-0.56-0.38-1.27-1.25-0.81-2.15
				C394.12,165.17,395.21,165.1,395.85,165.41z"/>
			<path class="st1" d="M397.71,44.8c0.08,1.93-0.53,2.83-2.03,2.45c-1.26-0.31-3.5,0.15-2.99-2.23c0.28-1.34,0.79-3.38,2.43-3.39
				C397.13,41.61,397.25,43.77,397.71,44.8z"/>
			<path class="st2" d="M393.26,176.49c2.18-0.05,1.43,1.67,1.57,2.79c-0.51,2.39-0.52,4.99-4.12,4.9
				c-1.68-0.04-3.17-1.22-2.64-1.98C389.51,180.12,389.65,176.57,393.26,176.49z"/>
			<path class="st1" d="M388.98,15.4c-0.36,0.14-0.8,0.49-1.05,0.38c-0.62-0.26-0.62-0.87-0.4-1.45
				C388.26,14.35,388.79,14.64,388.98,15.4z"/>
			<path class="st2" d="M370.21,144.28c0.14,1.34,0.34,2.82-1.11,3.47c-1.43,0.63-1.75-1.15-2.68-1.67
				c-2.67-1.48-1.29-4.36-2.18-6.49c-0.45-1.09,1.14-1.38,2.11-1.34c2.55,0.13,5.48-0.61,7.06,2.3c0.99,1.82,2.08,3.74,0.88,6.27
				C372.78,146.06,372.47,143.37,370.21,144.28L370.21,144.28z"/>
			<path class="st2" d="M367.65,152.25c-2.6,0.72-5.2,1.99-6.97-1.08c-0.52-0.89-0.92-2.16,0.17-2.59
				C364.26,147.25,365.57,150.59,367.65,152.25z"/>
			<path class="st2" d="M355.1,163.24c-0.53,1.4-0.96,2.51-2.22,2.86c-0.98,0.28-2.14,0.4-2.53-0.79c-0.86-2.6-2.91-4.36-4.33-6.56
				c-1.07-1.65-1.51-3.5-0.14-5.04c0.94-1.07,2.44-1.9,4.02-1.29c1.82,0.7,2.34,2.4,2.1,4.08
				C351.57,159.53,354.02,161.19,355.1,163.24z"/>
			<path class="st3" d="M349.86,142.31c0.48,1.41,2.08,2.94,0.1,4.43c-2.28,1.72-4.68,2-7.47,0.82c1.25-2.6,4.28-2.96,5.13-5.56
				C347.93,141.03,349.43,141.05,349.86,142.31z"/>
			<path class="st2" d="M344.94,170.65c1.45-0.72,2.16-0.25,2.4,1.32c-0.95,2.89-2.73,5.32-4.76,7.48c-0.43,0.46-0.83,0.9-1.15,1.32
				l-2.72-1.02c1.52-1.66,2.6-3.89,3.67-6.15C342.95,172.39,343.66,171.29,344.94,170.65z"/>
			<path class="st2" d="M343.3,185.21c1.79,0.67,2.74,2.63,1.52,4.03c-1.56,1.79-2.64-0.59-3.31-1.48c-0.84-1.11-1.72-1.95-2.67-2.5
				l2.72-0.93C341.99,184.63,342.56,184.93,343.3,185.21z"/>
			<path class="st3" d="M343.41,133.19c1.61,1.92-0.38,2.95-1.71,3.75c-1.59,0.96-4.05,0.67-4.4,3.29l-0.15,0.15
				c-2.84-0.98-3.05-3.22-2.47-5.61c0.65-2.71,2.48-5.15,4.89-5.83C342.07,128.24,342.16,131.69,343.41,133.19z"/>
			<path class="st2" d="M341.56,184.33l-2.72,0.93c-0.96-0.56-1.99-0.83-3.09-0.82l-0.11-2.52c1.22-0.48,2.22-1.23,3.07-2.17
				l2.72,1.02C340.39,182.13,340.11,183.29,341.56,184.33z"/>
			<path class="st2" d="M337.86,164.49c2.37,3.35,1.14,5.48-2.53,6.66c-2.77,0.88-5.12,3.4-7.69,2.15
				c-4.05-0.08-7.3-0.08-10.01-2.61c-1.03-0.97-2.93-2.51-3.47,0.71c-0.07,0.43-0.07,1.12-0.8,0.85c-3.75-1.34-5.05-5.01-7.31-7.77
				c-1.44-1.75,0.11-2.55,1.02-3.69c0.81-1.02,1.53-2.22,1.91-3.45c1.5-4.92,2.98-9.72,7.89-12.6c1.68-0.99,2.56-3.01,2.6-5.16
				c0.02-1.03,0.15-2.04,1.45-2.21c1.12-0.15,1.77,0.35,2.29,1.41C327.56,147.65,332.14,156.39,337.86,164.49z"/>
			<path class="st0" d="M337.3,140.23c0.13,0.17,0.25,0.35,0.37,0.53c-0.17-0.13-0.35-0.25-0.52-0.38L337.3,140.23z"/>
			<path class="st2" d="M335.64,181.92l0.11,2.52c-1.18,0.02-2.44,0.37-3.81,1.04c-1.28,0.64-3.06,1.6-3.59-0.7
				c-0.4-1.71,1.56-2.47,2.59-2.35C332.82,182.65,334.35,182.44,335.64,181.92z"/>
			<path class="st2" d="M333.05,194.51c2,0.04,2.05,1.41,1.92,2.49c-0.18,1.54-0.09,3.68-2.26,3.8c-1.36,0.08-3.67-0.35-3.59-1.98
				C329.23,196.64,331.78,195.87,333.05,194.51z"/>
			<path class="st2" d="M329.31,129.9c-0.22,3.11-2.04,4.42-3.99,2.88c-4.17-3.29-8.66-1.46-12.69-0.93
				c-3.67,0.47-4.29-1.72-5.67-3.52c-2.1-2.73,1.04-2.75,2.16-3.71c2.52-2.13,5.33-3.95,7.66-6.25c2.4-2.36,4.3-2.16,6.11,0.37
				C325.47,122.33,328.17,125.88,329.31,129.9z"/>
			<path class="st1" d="M317.37,98.56c-0.08,0.05-0.16,0.11-0.24,0.15c-1.9,1.13-3.12-0.25-4.48-0.3c-1.04-0.04-2.09-1.82-3.04-0.31
				c-0.37,0.6-0.49,1.24-0.42,1.87l-2.28,0.23c-0.08-0.77-0.07-1.62,0.02-2.55c0.32-3.23,2.53-3.38,4.86-3.88
				C316.21,92.84,314.77,97.59,317.37,98.56z"/>
			<path class="st2" d="M306.79,213.27c0.3,0.63,0.23,1.44-0.45,1.69c-0.52,0.19-1.57,0.12-1.78-0.22
				c-2.76-4.42-7.31-4.38-12.52-4.52c2.31-3.81,5.14-4.78,8.04-3.79C303.23,207.51,305.3,210.26,306.79,213.27z"/>
			<path class="st2" d="M299.5,219.59c-2.07-2-5.04-2.27-7.94-3.99C295.95,214.64,298.15,216.41,299.5,219.59z"/>
			<path class="st2" d="M289.08,171.66c3.62,1.41,5.92,3.98,6.95,8.25C290.74,179.38,289.95,175.48,289.08,171.66z"/>
			<path class="st1" d="M292.34,102.59c0.15,1.02-0.47,0.66-0.92,0.63C291.73,103,292.04,102.8,292.34,102.59z"/>
			<path class="st1" d="M291.41,103.22c-0.05,0.04-0.11,0.07-0.16,0.11l-0.06-0.08C291.25,103.22,291.33,103.22,291.41,103.22z"/>
			<path class="st1" d="M291.19,103.25l0.06,0.08c-0.04-0.01-0.07-0.02-0.11-0.03C291.16,103.28,291.17,103.27,291.19,103.25z"/>
			<path class="st1" d="M284.28,100.38c-0.79,5.39,4.31,2.28,6.86,2.92c-3.02,3.06-7.03,4.77-10.72,6.5
				c-2.5,1.17-1.2-2.54-1.71-3.99c-0.17-0.47,1.33-1.85,0.82-1.79c-5.12,0.62-2.74-4.75-5.34-6.14c1.75-0.48,3.33-0.85,4.86-1.35
				C282.58,95.4,285.19,94.1,284.28,100.38z"/>
			<path class="st2" d="M277,138.44c-0.48,4.04-0.81,6.71-1.13,9.39c-0.43-0.03-0.86-0.06-1.3-0.09
				C273.8,144.86,273.42,142.04,277,138.44z"/>
			<path class="st2" d="M256.59,113.14c0.6,1.98-1.55,2.39-2.8,2.78c-3.51,1.1-4.84,3.98-7.03,6.46c-2.54,2.86-5.49,7.02-10.44,7.88
				c1.95-0.15,3.92-0.17,5.84-0.5c1.96-0.34,4.35-1.38,5.39,0.81c1.06,2.26-0.67,5.46-2.12,6.07c-4.4,1.84-2.71,4.6-2.05,7.4
				c0.6,2.6,1.2,5.2,0.76,8.09c-1.43-3.21-2.82-6.43-4.32-9.61c-0.39-0.82-0.7-2.1-2-1.82c-1.09,0.23-1.61,1.24-1.55,2.29
				c0.28,4.97-3.88,1.89-5.74,3.01c-1.45,0.88-4.07,0.77-4.34-2.32c-0.09-1.01-0.61-2.06-1.84-1.92c-1.39,0.16-0.78,1.58-1.19,2.36
				c-1.55,2.93-2.52,5.88-1.85,9.28c0.2,1.05,0.12,2.84-0.52,3.28c-4.58,3.13-2.49,7.54-2.06,11.31c0.89,7.9,2.51,15.71,3.64,23.58
				c0.37,2.56,0.87,3.88,3.64,2.14c3.88-2.44,5.64,1.49,7.72,3.18c2.04,1.65,0.07,3.63-1.45,4.95c-1.2,1.03-1.59,2.47-2.43,4.01
				c-0.75-1.28-1.34-2.42-2.04-3.49c-1.6-2.45-4.03-4-6.76-3.1c-2.63,0.86-5.1,2.73-5.26,6.03c-0.14,3.2,1.46,5.86,4.41,6.51
				c3.84,0.85,4.74,2.96,5.37,6.48c1.08,6.06,1,11.81-0.94,17.68c-4.16,12.59-2.75,25.27-0.14,37.92c0.2,0.97,0.45,1.94,0.53,2.93
				c0.1,1.1,0.02,2.22-0.64,3.42c-1.34-6.94-2.85-13.85-3.94-20.83c-0.37-2.35-1.15-3.79-3.43-4.15c-5.59-0.89-10.5-3.85-15.83-5.53
				c-2.58-0.81-5.95-3.06-7.88-5.55c-1.85-2.4-3.34-1.19-5.13-0.89c-3.56-3.66-7.12-7.32-10.68-10.98
				c4.85-0.13,8.97-2.01,12.52-5.25c-0.52,2.79-0.63,5.55,1.01,8.09c0.89,7.26,11.91,12.75,17.81,8.85c1.4-0.92,3.08-2.19,2-3.92
				c-0.93-1.48-2.22,0.52-3.4,0.64c-2.35,0.22-4.69,3.06-7.08,0.1c4.63-0.65,8.57-2.34,10.55-6.99c3.59-3.22,2.86-7.1,1.15-10.7
				c-1.76-3.7-4.47-6.61-9.25-5.9c-0.25,0.01-0.5,0.01-0.75,0.01h-0.01l-0.01-0.01c-0.1-0.12-0.21-0.22-0.31-0.31
				c-1.63-1.51-3.79-1.93-6.25-2.33c1.2-2.96,2.77-4.99,5.37-6.46c4.44-2.53,5.06-5.64,3.7-10.53c-1.38-4.97-4.86-9.36-3.75-15.13
				c0.5-2.58-2.89-2.91-4.43-2.75c-2.3,0.24-2.5-0.83-3.34-2.34c-5.83-10.52-11.38-21.34-23.9-25.68c-3.7-1.29-7.41-1.87-11.26-1.18
				c-1.94,0.34-4.65,1.99-5.59,1.25c-3.11-2.44-6.43-4.62-9.44-7.16c-1.63-1.38,0.26-3.4,0.5-5.14c0.13-0.92,1.2-1.96,0.14-2.72
				c-1.2-0.86-2.32,0.03-2.99,0.96c-2.13,2.94-5.3,3.81-8.57,4.5c-2.05,0.43-3.99-0.19-4.2-2.38c-0.37-4.01-1.86-8.27,1.37-11.89
				c1.52-1.7,1.81-3.94,0.79-5.56c-1.38-2.19-2.74,0.45-4.17,0.72c-3.55,0.66-6.59-1.64-8.6-3.54c-2.63-2.47-7.67-5.94-1.83-10.52
				c0.71-0.55-0.12-1.17-0.47-1.66c-3.73-5.17-5.03-11.81-9.95-16.29c-1.06-0.96-1.89-2.39-2.35-3.77c-0.47-1.4-2.03-3.28,0.05-4.44
				c1.79-0.99,4.17-1.08,5.38,0.91c1.72,2.81,5.22,3.58,6.8,6.49c0.57,1.07,2.12,1.71,2.98,0.66c2.82-3.4,7.68-2.09,10.69-4.9
				c0.72-0.67,1.45-0.66,2.16,0.06c5.35,5.41,7.36,12.86,12.08,18.65c-5.45-1.45-18.37,3.81-22.09,9.21c0.52,0.3,0.98,0.42,1.4,0.42
				l0.92,1.3c-0.27,0.24-0.35,0.66-0.11,1.32c0.31,0.84,0.57,1.88,1.99,1.72c1.61-0.17,3.21-0.31,4.81-0.5
				c2.86-0.32,5.7-0.76,8.54-1.71c8.96-3.01,18.1-0.83,27.15,0.12c3.62,0.38,7.74,2.25,10.73,1.1c6.54-2.53,14.57,0.76,20.02-5.35
				c0.39-0.44,1.58-0.4,1.7-0.8c2.82-9.03,6.62-1.78,10.31-0.83c-2.92,2.37-1.63,7.46-6.25,8.27c-0.35,0.07,0.08,1.65,0.56,1.58
				c4.09-0.55,7.69,3.02,11.97,1.28c1.76-0.72,3.3-1.59,4.42-3.04c4.28-5.56,15.15-8.86,21.63-6.46c4.25,1.58,8.46-1.03,12.7-0.09
				C254.26,112.55,256.13,111.58,256.59,113.14z M221.77,135.3c1.05-0.84,3.29-1.39,2.1-3.22c-0.99-1.52-1.77-3.74-4.2-3.79
				c-3.34-0.07-10.91,7.28-11.36,10.95c-0.02,0-0.05,0.01-0.07,0.01c-0.01,0.02-0.02,0.04-0.03,0.06c-2.06,0.05-2.04-1.76-2.53-3.03
				c-0.85-2.19-2.61-4.53-4.55-3.71c-2.06,0.87-5.13,1.75-5.69,4.6c-0.49,2.44,1.41,3.89,3.25,5.12c0.96,0.64,2.05,1.11,2.87,1.88
				c2.95,2.8,4.93,3.39,4.51-1.84c-0.14-1.7,1.6-1.9,2.14-3.02c0.03,0,0.06,0,0.09,0c0-0.02,0-0.05,0.01-0.07
				C213.02,138.69,217.84,138.47,221.77,135.3z"/>
			<path class="st2" d="M254.95,231.45c1.18,0.27,1.52,1.28,1.32,2.3c-0.89,4.61-1.88,9.2-2.83,13.79
				c-3.24-5.16-0.56-10.03-0.42-14.97C253.04,231.81,254.04,231.24,254.95,231.45z"/>
			<path class="st2" d="M250.92,181.8c4.11,2.52,2.84,6.53,2.99,10.09C253.53,188.41,248.98,186.24,250.92,181.8z"/>
			<path class="st2" d="M243.33,156.67c0.02,2.87,0.3,5.82-2.42,8.88c-1-3.6-0.64-6.39-0.51-9.15c0.04-0.94,0.72-1.93,1.96-1.71
				C243.41,154.87,243.32,155.89,243.33,156.67z"/>
			<path class="st4" d="M229.81,280c2.35,1.04,5.54,1.98,5.48,5.67c-0.03,1.53-0.45,2.62-2.64,2.58c-1.96-1.32-5.19-1.94-5.76-5.03
				C226.65,281.89,228.49,279.41,229.81,280z"/>
			<path class="st1" d="M223.87,132.08c1.19,1.83-1.05,2.38-2.1,3.22c-3.93,3.17-8.75,3.39-13.46,3.94
				c0.45-3.67,8.02-11.02,11.36-10.95C222.1,128.34,222.88,130.56,223.87,132.08z"/>
			<path class="st1" d="M223.56,293.93c-0.23,0.24-0.47,0.48-0.7,0.73c-1.43-0.78-2.72-1.65-2.34-3.99
				C222.35,291.21,222.97,292.55,223.56,293.93z"/>
			<path class="st4" d="M193.86,220.67c0,0,0.89-1.92,3.89-2.92c2.82-0.94,4.13-0.57,4.28-0.53l0.01,0.01h0.01
				c0.25,0,0.5,0,0.75-0.01c4.78-0.71,7.49,2.2,9.25,5.9c1.71,3.6,2.44,7.48-1.15,10.7c-1.98,4.65-5.92,6.34-10.55,6.99
				c-4.34,0.14-5.84-4.41-9.33-5.67c-1.64-2.54-1.53-5.3-1.01-8.09C191.32,224.88,192.63,222.71,193.86,220.67z"/>
			<path class="st1" d="M210.83,240.07c1.08,1.73-0.6,3-2,3.92c-5.9,3.9-16.92-1.59-17.81-8.85c3.49,1.26,4.99,5.81,9.33,5.67
				c2.39,2.96,4.73,0.12,7.08-0.1C208.61,240.59,209.9,238.59,210.83,240.07z"/>
			<path class="st0" d="M205.06,268.3c5.26,13.04,9.08,26.22,3.27,40.24c-1.57,3.77-4.38,6.45-7,9.3
				c-6.16,6.71-12.48,13.26-18.74,19.87c-0.45,0.47-0.9,1.29-1.38,1.32c-6.12,0.34-10.91,4.61-16.46,5.85
				c-5.86,1.31-12.17-0.32-18.06-2.27c-0.79-0.26-1.61-0.4-2.41-0.6c-11.64-5.83-22.5-12.72-30.43-23.33
				c-7.36-9.85-13.56-20.32-16.41-32.47c-0.16-9.1-1.15-18.24,3.05-26.94c1.41-2.94,5.25-4.52,5.62-6.55
				c0.81-4.41,3.89-6.02,6.68-8.05c5.65-4.09,11.52-7.88,17.38-11.68c1.42-0.92,5.03-3.08,8.52-4.9c3.7-1.36,7.9-1.22,11.4-2.74
				c9.02,0.39,20.64,2.01,26.73,6.43c0.23,0.16,0.45,0.34,0.67,0.52c3.56,3.66,7.12,7.32,10.68,10.98
				C194.29,251.29,201.22,258.78,205.06,268.3z"/>
			<path class="st1" d="M208.31,139.24c-0.01,0.02-0.01,0.05-0.01,0.07l-0.06-0.06C208.26,139.25,208.29,139.24,208.31,139.24z"/>
			<path class="st1" d="M208.3,139.31c-0.03,0-0.06,0-0.09,0c0.01-0.02,0.02-0.04,0.03-0.06L208.3,139.31z"/>
			<path class="st1" d="M205.68,136.28c0.49,1.27,0.47,3.08,2.53,3.03c-0.54,1.12-2.28,1.32-2.14,3.02
				c0.42,5.23-1.56,4.64-4.51,1.84c-0.82-0.77-1.91-1.24-2.87-1.88c-1.84-1.23-3.74-2.68-3.25-5.12c0.56-2.85,3.63-3.73,5.69-4.6
				C203.07,131.75,204.83,134.09,205.68,136.28z"/>
			<path class="st4" d="M186.54,174.67c4.51,6.75,6.33,14.39,3.05,22.6c-2.62,6.57-5.93,8.52-12.99,9.16
				c-6.68,0.61-12.34,4.45-17.81,8.21c-0.35,0.24-0.71,0.94-0.61,1.3c-8.44,2.81-10,5.11-10.96,6.89c-0.1,0.03-0.19,0.06-0.28,0.08
				c-1.71-0.79-6.39-1.02-7.69-1.66c-1.62-0.79-11.62,2.3-10.45-0.32c0.78-1.74-0.97-2.1-1.96-2.91
				c-6.8-5.56-10.67-12.57-10.58-21.54c0.01-1.31-0.04-2.7-0.48-3.91c-1.81-5.01-0.56-9.03,3.96-11.63
				c5.43-3.12,10.85-5.12,16.05,0.55l9.46,0.85l0.12-0.13c-0.09-0.65-0.46-1.74-0.23-1.89c3.58-2.28,7.72-3.43,11.78-3.44
				c3.04,0,4.56,2.71,4.43,6.11c-0.11,2.78,6.41,6.81,9.98,6.27c4.01-0.61,7.6-2.45,10.95-4.62c2.75-1.78,2.63-4.5,1.18-7.05
				c-2.29-4.02-4.3-8.27-8.61-10.76c-1.08-0.63-3.18-1.63-1.62-3.33c1.14-1.24,2.38-2.42,5.02-0.93
				C183.21,165.36,183.87,170.67,186.54,174.67z M178,199.89c-2.04-1.2-3.69-0.55-5.29-0.04c-0.19,0.06-0.37,0.11-0.56,0.17
				c-0.09,0.03-0.18,0.05-0.28,0.07c-0.27,0.07-0.55,0.12-0.83,0.15c-0.21,0.02-0.43,0.06-0.64,0.11c-0.15,0.03-0.28,0.07-0.42,0.12
				c-0.93,0.31-1.62,0.97-1.21,2.22c0.57,1.73,2.42,1.97,3.72,1.27C174.42,202.93,176.06,201.37,178,199.89z M157.72,185.31
				c-0.14-1.12-0.61-1.9-1.54-1.68c-1.78,0.43-3.84,1.15-4.12,3.05c-0.15,1.05,0.72,3.25,2.34,3.28
				C157.59,190.02,155.41,186.05,157.72,185.31z"/>
			<path class="st2" d="M175.41,96.23c5.46-1.74,11.93,2.89,11.73,7.83c-0.04,0.96-0.54,1.63-1.37,1.83
				c-1.61,0.37-2.53-0.81-3.04-1.99C181.33,100.61,178.89,98.37,175.41,96.23z"/>
			<path class="st4" d="M183.46,177.59c1.45,2.55,1.57,5.27-1.18,7.05c-3.35,2.17-6.94,4.01-10.95,4.62
				c-3.57,0.54-10.09-3.49-9.98-6.27c0.13-3.4-1.39-6.11-4.43-6.11c-4.06,0.01-8.2,1.16-11.78,3.44c-0.23,0.15,0.14,1.24,0.23,1.89
				l-0.12,0.13l-9.46-0.85c-5.2-5.67-10.62-3.67-16.05-0.55l34.51-21.69c15-4,21.36,1.83,24,3.32c-2.64-1.49-3.88-0.31-5.02,0.93
				c-1.56,1.7,0.54,2.7,1.62,3.33C179.16,169.32,181.17,173.57,183.46,177.59z"/>
			<path class="st1" d="M172.71,199.85c1.6-0.51,3.25-1.16,5.29,0.04c-1.94,1.48-3.58,3.04-5.51,4.07c-1.3,0.7-3.15,0.46-3.72-1.27
				c-0.41-1.25,0.28-1.91,1.21-2.22c0.14-0.05,0.27-0.08,0.42-0.12c0.21-0.04,0.43-0.08,0.64-0.1c0.28-0.03,0.56-0.09,0.83-0.16
				c0.1-0.02,0.19-0.04,0.28-0.07C172.34,199.97,172.52,199.91,172.71,199.85z"/>
			<path class="st2" d="M172.95,96.29c0.68,1.27,1.14,2.66,1.84,4.3c-6.53,1.81-12.03,4.8-17.41,8.08
				c-3.53,2.15-6.97,3.38-11.02,0.68c-2.69-1.79-2.14-3.26-0.08-4.38c2.82-1.54,3.75-3.67,4.2-6.72c0.8-5.33,6.04-9.11,12.72-9.65
				C168.76,88.15,170.82,92.33,172.95,96.29z"/>
			<path class="st0" d="M172.15,200.02c0.19-0.06,0.37-0.11,0.56-0.17C172.52,199.91,172.34,199.97,172.15,200.02z"/>
			<path class="st0" d="M171.04,200.24c0.28-0.03,0.56-0.08,0.83-0.15C171.6,200.16,171.32,200.22,171.04,200.24
				c-0.21,0.03-0.43,0.07-0.64,0.11C170.61,200.3,170.83,200.26,171.04,200.24z"/>
			<path class="st0" d="M169.98,200.47c0.14-0.05,0.27-0.09,0.42-0.12C170.25,200.39,170.12,200.42,169.98,200.47z"/>
			<path class="st2" d="M166.91,73.96c1.16,0.3,2.84,1.37,1.82,3.4c-0.73,1.44-1.8,2.34-3.76,2.66c-3.1-3.71-4.53,0-6.81,1.67
				c-2.01,1.48-3.2,0-2.85-2.1c0.53-3.16,1.81-6.23,4.49-8.03C162.75,69.58,164.44,73.32,166.91,73.96z"/>
			<path class="st4" d="M152.9,221.56c-2.01,0.33-3.93,0.78-5.68,1.27c0.96-1.78,2.52-4.08,10.96-6.89
				c1.11,4.13-1.85,3.67-5.06,5.58C153.05,221.53,152.98,221.55,152.9,221.56z"/>
			<path class="st1" d="M156.18,183.63c0.93-0.22,1.4,0.56,1.54,1.68c-2.31,0.74-0.13,4.71-3.32,4.65
				c-1.62-0.03-2.49-2.23-2.34-3.28C152.34,184.78,154.4,184.06,156.18,183.63z"/>
			<path class="st0" d="M153.12,223.52c9.2-0.03,16.91,2.89,23.7,8.26c-6.09-4.42-17.71-6.04-26.73-6.43
				c0.98-0.43,1.91-0.98,2.76-1.74L153.12,223.52z"/>
			<path class="st0" d="M153.12,223.52l-0.27,0.09c0.02-0.02,0.04-0.03,0.05-0.05C152.98,223.55,153.05,223.53,153.12,223.52z"/>
			<path class="st0" d="M152.9,223.56c-0.01,0.02-0.03,0.03-0.05,0.05l-5.31,1.66c-0.6-0.01-1.18-0.02-1.74-0.02
				C147.91,224.6,150.34,223.98,152.9,223.56z"/>
			<path class="st0" d="M147.54,225.27l5.31-1.66c-0.85,0.76-1.78,1.31-2.76,1.74C149.21,225.31,148.36,225.29,147.54,225.27z"/>
			<path class="st2" d="M151.29,50.63c7.79,12.09,5.59,9.19-5.25,12.17c-6.67,1.84-13.58,2.85-20.38,4.21
				c-0.47,0.09-0.99-0.05-1.9-0.1c1.13-2.85,3.61-4.3,5.33-6.33c1.39-1.62,2.97-2.99,3.34-5.36c0.58-3.57,4.62-5.62,7.06-3.24
				c2.12,2.06,4.7,2.16,6.94,3.41c1.32,0.74,2.75,1.48,4.06,0.05c1.3-1.42-0.22-2.36-0.7-3.49c-0.23-0.55-0.19-1.21-0.44-3
				C150.62,50.03,151.06,50.26,151.29,50.63z"/>
			<path class="st0" d="M147.54,225.27c0.82,0.02,1.67,0.04,2.55,0.08c-3.5,1.52-7.7,1.38-11.4,2.74c0.07-0.04,0.15-0.08,0.22-0.11
				L147.54,225.27z"/>
			<path class="st0" d="M147.54,225.27l-8.63,2.71c0.53-0.28,1.06-0.54,1.57-0.8c1.32-0.55,3.15-1.25,5.32-1.93
				C146.36,225.25,146.94,225.26,147.54,225.27z"/>
			<path class="st1" d="M147.12,223.01c0.85,0.49,0.63,1.17-1.87,2.24C146.29,224.63,146.65,223.88,147.12,223.01z"/>
			<path class="st4" d="M146.94,222.91c-3.09,0.89-5.62,1.9-7.14,2.56c-1.02,0.44-2.18,0.44-3.19-0.03
				c-2.05-0.94-3.76-1.72-5.44-2.54c-1.62-0.79-3.54,0.65-2.37-1.97c-1.17,2.62,8.83-0.47,10.45,0.32
				C140.55,221.89,145.23,222.12,146.94,222.91z"/>
			<path class="st0" d="M140.48,227.18c-0.51,0.26-1.04,0.52-1.57,0.8l-0.66,0.2C138.38,228.12,139.18,227.72,140.48,227.18z"/>
			<path class="st0" d="M138.69,228.09c-3.49,1.82-7.1,3.98-8.52,4.9c2.46-1.59,4.41-3.93,8.06-4.8l0.02-0.01l0.66-0.2
				C138.84,228.01,138.76,228.05,138.69,228.09z"/>
			<path class="st2" d="M130.28,111.44c0.73,0.92,2.49,1.89,1.46,3.32c-0.64,0.87-1.47,1.34-2.4,1.45
				c-0.79,0.09-1.65-0.08-2.54-0.49c-0.72-0.33-1.62-0.32-2.44-0.36c-0.6-0.03-1.17,0.02-1.49,0.31l-0.92-1.3
				c1.51,0,2.46-1.56,3.73-2.11C127.16,111.62,128.42,109.12,130.28,111.44z"/>
			<path class="st0" d="M128.88,14.59c5.78,6.84,11.63,13.62,18.09,21.16c-9.12,1.21-17.43,2.31-25.73,3.42
				c-4.79,0.63-9.6,1.14-14.35,1.98c-0.15,0.03-0.3,0.05-0.45,0.07c-2.41,0.35-4.15-0.14-5.21-2.64c-1.07-2.55-2.86-3.18-5.63-2.57
				c-6.55,1.45-13.65,0.88-19.37,5.36c-0.66,0.23-0.81,0.7-0.6,1.33c-0.08,0.37-0.16,0.74-0.24,1.1
				C61.46,61.81,50,81.42,38.57,101.04c-4.44,7.61-8.45,15.46-12.65,23.2c-1.91,0.37-2.68,1.78-3.14,3.47
				c-0.62,0.18-1.25,0.36-1.88,0.54l-0.08-0.01c-1.21-2.52-2.34-5.09-5.23-6.17c0.17-1.03-0.38-1.65-1.2-2.12
				c-2.32-9.14-4.43-18.34-7.03-27.39C5.67,86.69,7.09,81.22,8.45,75.7c1.44-5.82,5.27-9.48,11.02-11.16
				c8.29-2.43,10.72-5.91,9.28-14.5c-1.12-6.63-0.4-12.88,1.93-19.09c3.07-8.17,8.96-12.62,17.57-13.32c2.42-0.2,4.43-0.6,6.32-2.31
				c3.34-3.01,7.81-2.45,11.86-3.03c4.09-0.6,7.88-0.88,11.29,3.01c2.55,2.9,7.11,1.53,10.49,0.87c5.59-1.11,11.24-0.89,16.83-1.5
				c6.23-0.67,12.55-1.15,18.84-1.56C125.74,12.98,127.48,12.93,128.88,14.59z"/>
			<path class="st1" d="M129.34,116.21l0.22,2c-1.6,0.19-3.2,0.33-4.81,0.5c-1.42,0.16-1.68-0.88-1.99-1.72
				c-0.24-0.66-0.16-1.08,0.11-1.32c0.32-0.29,0.89-0.34,1.49-0.31c0.82,0.04,1.72,0.03,2.44,0.36
				C127.69,116.13,128.55,116.3,129.34,116.21z"/>
			<path class="st2" d="M125.31,79.04c1.59-0.21,2.55,2.53,2.44,3.76c-0.25,2.62-3.27,1.1-4.31,2.41c-1.1-0.45-2.39,0.67-2.22-1.45
				C121.45,80.97,123.16,79.33,125.31,79.04z"/>
			<path class="st2" d="M124.32,53.28c0.07,0.08,0.15,0.16,0.22,0.24c-0.09-0.06-0.16-0.12-0.25-0.2L124.32,53.28z"/>
			<path class="st2" d="M124.32,53.28l-0.03,0.04h-0.01c-0.01-0.01-0.03-0.03-0.03-0.04C124.27,53.28,124.3,53.28,124.32,53.28z"/>
			<path class="st2" d="M124.24,53.28c-0.64,0.01-1.29,0.01-1.92,0.02c-0.19-0.25-0.18-1-0.75-0.3c0.23,0.12,0.45,0.25,0.67,0.37
				c-0.33,0.73,0.17,2.35-1.52,1.66c-0.72-0.28-1.26-1.03-1.83-1.62c-1.78-1.86-2.34-5.62-4.86-5.69c-2.2-0.06-4.48,2.28-6.71,3.57
				c1.05-6.13,7.63-4.56,10.96-7.65c1.21-1.12,1.85,1.25,2.16,2.41C121.17,48.76,122.29,51.24,124.24,53.28z"/>
			<path class="st1" d="M122.32,53.3l-0.08,0.07c-0.22-0.12-0.44-0.25-0.67-0.37C122.14,52.3,122.13,53.05,122.32,53.3z"/>
			<path class="st2" d="M107.32,51.29c-0.01,0.01-0.01,0.02-0.01,0.03l-0.01-0.02C107.31,51.3,107.31,51.29,107.32,51.29z"/>
			<polygon class="st2" points="107.3,51.3 107.31,51.32 107.2,51.43 			"/>
			<path class="st2" d="M106.86,146.61c-1.95,0.13-2.28-1.04-2.52-2.28C105.75,144.38,106.51,145.12,106.86,146.61z"/>
			<path class="st2" d="M105.76,70.44c-0.11,0.11-0.22,0.22-0.32,0.32c-0.05-0.14-0.11-0.28-0.16-0.42l0.05-0.05
				C105.47,70.34,105.62,70.39,105.76,70.44z"/>
			<path class="st2" d="M105.33,70.29l-0.05,0.05c-1.38,0.04-2.05-0.63-1.99-2.01l0.03-0.04C104.62,68.33,105.28,69,105.33,70.29z"
				/>
			<path class="st2" d="M104.33,144.26c0,0.02,0.01,0.05,0.01,0.07c-0.02-0.01-0.05-0.01-0.08-0.01L104.33,144.26z"/>
			<path class="st2" d="M104.33,144.26l-0.07,0.06c0-0.03,0.01-0.07,0-0.1C104.28,144.24,104.31,144.25,104.33,144.26z"/>
			<path class="st2" d="M103.34,142.32c0.69,0.44,0.98,1.1,0.92,1.9C103.51,143.8,103.35,143.1,103.34,142.32z"/>
			<path class="st2" d="M103.34,142.23c0,0.03,0,0.06,0,0.09c-0.01-0.02-0.03-0.03-0.05-0.04L103.34,142.23z"/>
			<path class="st2" d="M103.34,142.23l-0.05,0.05c-0.03-0.04-0.05-0.08-0.08-0.12C103.25,142.18,103.3,142.21,103.34,142.23z"/>
			<path class="st2" d="M103.32,68.29l-0.03,0.04c-0.13-0.14-0.26-0.29-0.4-0.43C103.03,68.03,103.18,68.16,103.32,68.29z"/>
			<path class="st2" d="M103.21,142.16c-0.47-0.26-0.93-0.51-1.4-0.77c0.16-0.2,0.32-0.39,0.48-0.58
				C102.6,141.26,102.91,141.71,103.21,142.16z"/>
			<path class="st2" d="M102.33,67.29c0.19,0.2,0.38,0.4,0.56,0.61c-0.2-0.19-0.4-0.38-0.61-0.56L102.33,67.29z"/>
			<path class="st2" d="M101.81,56.63c-1.62,3.77,1.13,7.1,0.48,10.66c-3.29,0.32-6.29-3.4-5.8-7.31c0.16-1.29,0.6-2.55,0.92-3.82
				c0.24-0.95-0.42-2.79,1.52-2.23C100.18,54.3,102.57,54.87,101.81,56.63z"/>
			<path class="st2" d="M102.33,67.29l-0.05,0.05c0-0.02,0.01-0.03,0.01-0.05C102.3,67.29,102.32,67.29,102.33,67.29z"/>
			<path class="st2" d="M98.35,72.34c2.67,0.16,4.48,1.18,4.52,4.74C100.43,75.93,98.59,74.91,98.35,72.34z"/>
			<path class="st2" d="M84.77,168.9c5.1,1.95,13.75,13.85,13.63,18.34C94.07,180.61,89.53,174.68,84.77,168.9z"/>
			<path class="st2" d="M98.34,72.29c0,0.02,0,0.03,0.01,0.05c-0.02,0-0.04,0-0.06,0L98.34,72.29z"/>
			<path class="st2" d="M98.34,72.29l-0.05,0.05c-0.34-0.34-0.68-0.67-1.01-1.01l0.05-0.05C97.66,71.61,98,71.95,98.34,72.29z"/>
			<path class="st1" d="M97.33,71.28l-0.05,0.05c-0.02-0.03-0.03-0.07-0.05-0.1C97.26,71.25,97.3,71.26,97.33,71.28z"/>
			<path class="st2" d="M91.1,139.52c1.72-0.01,1.52,1.85,2.31,2.63c-0.77,2-1.99,2.99-3.82,2.91c-1.49-0.07-1.91-1.64-1.79-2.51
				C88.04,140.89,89.28,139.53,91.1,139.52z"/>
			<path class="st1" d="M76.23,41.37c-0.2,0.44-0.4,0.89-0.6,1.33C75.42,42.07,75.57,41.6,76.23,41.37z"/>
			<path class="st2" d="M25.92,124.24c0.61,1.43,2.89,2.7,1.71,4.18c-1.43,1.79-3.2-0.39-4.85-0.71
				C23.24,126.02,24.01,124.61,25.92,124.24z"/>
			<path class="st1" d="M15.59,122.07c2.89,1.08,4.02,3.65,5.23,6.17c-3.62-0.45-4.92-2.87-5.23-6.13
				C15.59,122.1,15.59,122.08,15.59,122.07z"/>
			<path class="st1" d="M14.39,119.95c0.82,0.47,1.37,1.09,1.2,2.12l-0.01-0.01l0.01,0.05C14.22,121.93,14.28,120.95,14.39,119.95z"
				/>
			<path class="st0" d="M15.59,122.07c0,0.01,0,0.03,0,0.04l-0.01-0.05L15.59,122.07z"/>
		</g>
		<g>
		</g>
	</g>
</g>
<path class="st1" d="M138.23,228.19c0,0,9.76-4.39,14.89-4.67"/>
</svg>
